<svg xmlns="http://www.w3.org/2000/svg" viewBox="0 0 64 64" width="100" height="100"><path d="M46.6,29.2c-1.2-6.5-6.8-11.4-13.6-11.4c-4.8,0-9,2.5-11.5,6.3c-3.5-1.5-7.5-0.1-9.1,3.4c-1.6,3.5-0.1,7.5,3.4,9.1 C17.3,37,18.8,37,20.2,37c2.4,0,4.6-1.2,5.8-3.2c1.2,0.1,2.3,0.2,3,0.2c5.9,0,10.9-3.7,12.8-8.8" fill="#B0BEC5"/><path d="M51.2,33.1c-0.9-5.1-5.3-8.9-10.6-8.9c-3.7,0-7,2-8.9,5c-2.7-1.2-5.8,0-7.1,2.7s0,5.8,2.7,7.1 c1.1,0.5,2.2,0.7,3.3,0.7c1.9,0,3.6-0.9,4.5-2.5c0.9,0.1,1.8,0.1,2.4,0.1c4.6,0,8.5-2.9,9.9-6.8" fill="#CFD8DC"/></svg>