<svg xmlns="http://www.w3.org/2000/svg" viewBox="0 0 64 64" width="100" height="100"><path d="M46.6,29.2c-1.2-6.5-6.8-11.4-13.6-11.4c-4.8,0-9,2.5-11.5,6.3c-3.5-1.5-7.5-0.1-9.1,3.4c-1.6,3.5-0.1,7.5,3.4,9.1 C17.3,37,18.8,37,20.2,37c2.4,0,4.6-1.2,5.8-3.2c1.2,0.1,2.3,0.2,3,0.2c5.9,0,10.9-3.7,12.8-8.8" fill="#90A4AE"/><path d="M29,40.1l-2.1,4.2c-0.6,1.2,0.1,2.6,1.3,3.2c0.4,0.2,0.8,0.3,1.2,0.3c0.9,0,1.8-0.5,2.2-1.4l2.1-4.2 C34.3,41,33.5,39.5,32.3,38.9S30.2,39.5,29,40.1z" fill="#42A5F5"/><path d="M40,46.1l-2.1,4.2c-0.6,1.2,0.1,2.6,1.3,3.2c0.4,0.2,0.8,0.3,1.2,0.3c0.9,0,1.8-0.5,2.2-1.4l2.1-4.2 c0.6-1.2-0.1-2.6-1.3-3.2S40.6,44.9,40,46.1z" fill="#42A5F5"/></svg>