<svg xmlns="http://www.w3.org/2000/svg" viewBox="0 0 64 64" width="100" height="100"><path d="M57,44H7c-1.7,0-3-1.3-3-3s1.3-3,3-3h50c1.7,0,3,1.3,3,3S58.7,44,57,44z" fill="#78909C"/><path d="M46.7,38H17.3c-1.5,0-2.7-1.2-2.7-2.7v-0.6c0-6.4,5.2-11.6,11.6-11.6h5.4c6.4,0,11.6,5.2,11.6,11.6v0.6 C49.3,36.8,48.1,38,46.7,38z" fill="#FFB74D"/><path d="M20,29h-4 M50,29h-4 M29,20v-4 M37,20v-4 M23.5,23.5l-2.8-2.8 M45.3,23.5l-2.8,2.8" fill="none" stroke="#FFB74D" stroke-width="2" stroke-miterlimit="10" stroke-linecap="round"/></svg>